<svg xmlns="http://www.w3.org/2000/svg" viewBox="0 0 1100 720" font-family="Georgia, 'Times New Roman', serif" width="1100" height="720">

  <defs>
    <marker id="arrow" viewBox="0 0 10 10" refX="9" refY="5"
            markerWidth="9" markerHeight="9" orient="auto">
      <path d="M0,0 L10,5 L0,10 z" fill="#1a1a1a"/>
    </marker>
    <marker id="arrowAccent" viewBox="0 0 10 10" refX="9" refY="5"
            markerWidth="9" markerHeight="9" orient="auto">
      <path d="M0,0 L10,5 L0,10 z" fill="#c8553d"/>
    </marker>
  </defs>

  <rect width="1100" height="720" fill="#faf7f2"/>

  <!-- Standard header -->
  <text x="80" y="68" font-size="32" font-weight="400" fill="#1a1a1a" letter-spacing="0.2">Standard RAG is a one-way street</text>
  <text x="80" y="94" font-size="16" font-style="italic" fill="#6b665e" letter-spacing="0.3">One pass. No adaptation.</text>
  <line x1="80" y1="112" x2="200" y2="112" stroke="#1a1a1a" stroke-width="1.2"/>

  <!-- ============================================================
       PIPELINE STAGES
       ============================================================ -->

  <!-- Query node -->
  <g>
    <circle cx="130" cy="320" r="50" fill="#faf7f2" stroke="#1a1a1a" stroke-width="2"/>
    <text x="130" y="316" font-size="15" fill="#1a1a1a" text-anchor="middle" font-weight="600">Query</text>
    <text x="130" y="335" font-size="12" fill="#6b665e" text-anchor="middle" font-style="italic">q</text>
  </g>

  <!-- Retrieve box -->
  <g>
    <rect x="240" y="280" width="160" height="80" fill="#faf7f2" stroke="#1a1a1a" stroke-width="2" rx="4"/>
    <text x="320" y="313" font-size="15" fill="#1a1a1a" text-anchor="middle" font-weight="600">Retrieve</text>
    <text x="320" y="335" font-size="12" fill="#6b665e" text-anchor="middle" font-style="italic">embeddings</text>
  </g>

  <!-- ============================================================
       CANDIDATE POOL
       ============================================================ -->

  <rect x="430" y="225" width="280" height="190" fill="none" stroke="#6b665e" stroke-width="1" stroke-dasharray="4,4" rx="3"/>

  <!-- candidate dots: 6 rows × 12 cols, spacing 22 -->
  <g fill="#b8b3a8">
    <!-- row 1 -->
    <circle cx="450" cy="245" r="3.5"/><circle cx="472" cy="245" r="3.5"/>
    <circle cx="494" cy="245" r="3.5"/><circle cx="516" cy="245" r="3.5"/>
    <circle cx="538" cy="245" r="3.5"/><circle cx="560" cy="245" r="3.5"/>
    <circle cx="582" cy="245" r="3.5"/><circle cx="604" cy="245" r="3.5"/>
    <circle cx="626" cy="245" r="3.5"/><circle cx="648" cy="245" r="3.5"/>
    <circle cx="670" cy="245" r="3.5"/><circle cx="692" cy="245" r="3.5"/>
    <!-- row 2 -->
    <circle cx="450" cy="267" r="3.5"/><circle cx="472" cy="267" r="3.5"/>
    <circle cx="494" cy="267" r="3.5"/><circle cx="516" cy="267" r="3.5"/>
    <circle cx="538" cy="267" r="3.5"/><circle cx="560" cy="267" r="3.5"/>
    <circle cx="582" cy="267" r="3.5"/><circle cx="604" cy="267" r="3.5"/>
    <circle cx="626" cy="267" r="3.5"/><circle cx="648" cy="267" r="3.5"/>
    <circle cx="670" cy="267" r="3.5"/><circle cx="692" cy="267" r="3.5"/>
    <!-- row 3 -->
    <circle cx="450" cy="289" r="3.5"/><circle cx="472" cy="289" r="3.5"/>
    <circle cx="494" cy="289" r="3.5"/><circle cx="516" cy="289" r="3.5"/>
    <circle cx="538" cy="289" r="3.5"/><circle cx="560" cy="289" r="3.5"/>
    <circle cx="582" cy="289" r="3.5"/><circle cx="604" cy="289" r="3.5"/>
    <circle cx="626" cy="289" r="3.5"/><circle cx="648" cy="289" r="3.5"/>
    <circle cx="670" cy="289" r="3.5"/><circle cx="692" cy="289" r="3.5"/>
    <!-- row 4 -->
    <circle cx="450" cy="311" r="3.5"/><circle cx="472" cy="311" r="3.5"/>
    <circle cx="494" cy="311" r="3.5"/><circle cx="516" cy="311" r="3.5"/>
    <circle cx="538" cy="311" r="3.5"/><circle cx="560" cy="311" r="3.5"/>
    <circle cx="582" cy="311" r="3.5"/><circle cx="604" cy="311" r="3.5"/>
    <circle cx="626" cy="311" r="3.5"/><circle cx="648" cy="311" r="3.5"/>
    <circle cx="670" cy="311" r="3.5"/><circle cx="692" cy="311" r="3.5"/>
    <!-- row 5 -->
    <circle cx="450" cy="333" r="3.5"/><circle cx="472" cy="333" r="3.5"/>
    <circle cx="494" cy="333" r="3.5"/><circle cx="516" cy="333" r="3.5"/>
    <circle cx="538" cy="333" r="3.5"/><circle cx="560" cy="333" r="3.5"/>
    <circle cx="582" cy="333" r="3.5"/><circle cx="604" cy="333" r="3.5"/>
    <circle cx="626" cy="333" r="3.5"/><circle cx="648" cy="333" r="3.5"/>
    <circle cx="670" cy="333" r="3.5"/><circle cx="692" cy="333" r="3.5"/>
    <!-- row 6 -->
    <circle cx="450" cy="355" r="3.5"/><circle cx="472" cy="355" r="3.5"/>
    <circle cx="494" cy="355" r="3.5"/><circle cx="516" cy="355" r="3.5"/>
    <circle cx="538" cy="355" r="3.5"/><circle cx="560" cy="355" r="3.5"/>
    <circle cx="582" cy="355" r="3.5"/><circle cx="604" cy="355" r="3.5"/>
    <circle cx="626" cy="355" r="3.5"/><circle cx="648" cy="355" r="3.5"/>
    <circle cx="670" cy="355" r="3.5"/><circle cx="692" cy="355" r="3.5"/>
  </g>

  <!-- highlighted relevant docs inside the pool (teal) -->
  <g fill="#2a4747">
    <circle cx="494" cy="267" r="4.5"/>
    <circle cx="582" cy="311" r="4.5"/>
    <circle cx="648" cy="333" r="4.5"/>
    <circle cx="538" cy="355" r="4.5"/>
  </g>

  <!-- pool legend - placed below the dashed box -->
  <g font-size="11" fill="#6b665e" font-style="italic">
    <circle cx="438" cy="436" r="3.5" fill="#b8b3a8"/>
    <text x="450" y="440">retrieved</text>
    <circle cx="512" cy="436" r="4.5" fill="#2a4747"/>
    <text x="522" y="440" fill="#2a4747">relevant</text>
  </g>

  <!-- Rerank box -->
  <g>
    <rect x="740" y="280" width="140" height="80" fill="#faf7f2" stroke="#1a1a1a" stroke-width="2" rx="4"/>
    <text x="810" y="313" font-size="15" fill="#1a1a1a" text-anchor="middle" font-weight="600">Rerank</text>
    <text x="810" y="335" font-size="12" fill="#6b665e" text-anchor="middle" font-style="italic">deep, slow</text>
  </g>

  <!-- Generate box -->
  <g>
    <rect x="920" y="280" width="130" height="80" fill="#faf7f2" stroke="#1a1a1a" stroke-width="2" rx="4"/>
    <text x="985" y="313" font-size="15" fill="#1a1a1a" text-anchor="middle" font-weight="600">Generate</text>
    <text x="985" y="335" font-size="12" fill="#6b665e" text-anchor="middle" font-style="italic">LLM / answer</text>
  </g>

  <!-- ============================================================
       FLOW ARROWS
       ============================================================ -->

  <line x1="180" y1="320" x2="234" y2="320" stroke="#1a1a1a" stroke-width="2" marker-end="url(#arrow)"/>
  <line x1="402" y1="320" x2="424" y2="320" stroke="#1a1a1a" stroke-width="2" marker-end="url(#arrow)"/>
  <line x1="712" y1="320" x2="734" y2="320" stroke="#1a1a1a" stroke-width="2" marker-end="url(#arrow)"/>
  <line x1="882" y1="320" x2="914" y2="320" stroke="#1a1a1a" stroke-width="2" marker-end="url(#arrow)"/>

  <!-- s2 annotations -->
  <text x="700" y="470" font-size="12" fill="#6b665e" text-anchor="end" font-style="italic">top-K → rerank</text>
  <text x="570" y="200" font-size="13" fill="#1a1a1a" text-anchor="middle" font-weight="600">N = 1,000 candidates</text>

</svg>
